<svg width="1206" height="995" xmlns="http://www.w3.org/2000/svg" xmlns:xlink="http://www.w3.org/1999/xlink" xml:space="preserve" overflow="hidden"><defs><clipPath id="clip0"><path d="M2101.14 305.927 2449.35 249.561 2506.51 602.697 2158.3 659.063Z" fill-rule="nonzero" clip-rule="nonzero"/></clipPath><clipPath id="clip1"><path d="M2101.14 305.927 2449.35 249.561 2506.51 602.697 2158.3 659.063Z" fill-rule="evenodd" clip-rule="evenodd"/></clipPath><clipPath id="clip2"><path d="M2101.14 305.927 2449.35 249.561 2506.51 602.697 2158.3 659.063Z" fill-rule="evenodd" clip-rule="evenodd"/></clipPath><clipPath id="clip3"><path d="M2498.59 586.405 2374 280.83 2679.57 156.234 2804.17 461.809Z" fill-rule="evenodd" clip-rule="evenodd"/></clipPath><clipPath id="clip4"><path d="M2498.59 586.405 2374 280.83 2679.57 156.234 2804.17 461.809Z" fill-rule="evenodd" clip-rule="evenodd"/></clipPath><clipPath id="clip5"><path d="M2498.59 586.405 2374 280.83 2679.57 156.234 2804.17 461.809Z" fill-rule="evenodd" clip-rule="evenodd"/></clipPath></defs><g transform="translate(-1938 -155)"><g><g><g><g><path d="M751.961 422.164 751.831 422.164C745.786 422.212 738.065 422.408 729.018 422.882L725.746 387.925C725.746 387.925 722.483 387.69 716.409 387.69 710.299 387.69 701.127 388.005 689.766 388.977L684.716 330.455C673.507 328.779 662.181 328.008 650.849 328.149 565.692 328.29 484.336 363.424 425.847 425.316L422.157 425.316C363.665 363.426 282.31 328.293 197.153 328.149 185.821 328.007 174.494 328.778 163.286 330.455L158.237 388.974C146.874 388.002 137.704 387.686 131.596 387.686 125.524 387.686 122.258 387.921 122.258 387.921L118.989 422.879C109.941 422.405 102.219 422.208 96.1747 422.161L96.0439 422.161C87.3567 422.159 80.0987 428.776 79.2995 437.427L53.908 711.59C53.0187 720.854 59.807 729.084 69.0702 729.973 69.6008 730.024 70.1336 730.05 70.6666 730.05 70.8504 730.05 71.0341 730.05 71.2187 730.042 76.3341 729.878 82.369 729.764 89.2255 729.764 151.064 729.764 278.821 739.193 384.594 808.292 390.133 811.966 396.623 813.945 403.269 813.99L445.184 813.99C451.56 813.952 457.798 812.128 463.19 808.723 574.71 739.232 700.071 729.767 760.104 729.767 766.404 729.767 771.988 729.871 776.757 730.022L777.234 730.03C786.566 730.052 794.147 722.505 794.169 713.174 794.171 712.638 794.146 712.102 794.097 711.568L768.702 437.427C767.901 428.779 760.646 422.164 751.961 422.164ZM394.249 793.498C285.832 722.674 156.604 712.099 89.2211 712.099 83.2144 712.099 77.281 712.187 71.5791 712.358L96.8186 439.838C102.143 439.889 109.084 440.07 117.335 440.504L93.6943 693.054C93.6943 693.054 96.5474 692.909 101.821 692.909 136.336 692.909 274.517 699.14 394.61 792.903 395.44 793.55 397.206 794.669 397.095 794.858 396.073 794.578 395.11 794.117 394.249 793.498ZM415.023 786.653C299.405 691.194 165.963 677.009 113.09 675.418L138.361 405.45C143.371 405.585 149.579 405.915 156.723 406.526L135.82 648.765C135.82 648.765 298.872 668.581 415.167 784.127L415.167 786.584C415.167 786.687 415.101 786.717 415.023 786.651ZM415.023 759.719C318.551 671.327 198.738 642.016 154.835 633.923L179.643 346.423C184.397 346.085 190.303 345.821 197.155 345.821 278.372 345.947 355.888 379.802 411.175 439.297L415.167 443.513 415.167 759.658C415.167 759.762 415.1 759.789 415.021 759.717ZM432.833 443.521 436.829 439.301C492.115 379.802 569.631 345.944 650.85 345.82 657.702 345.82 663.608 346.085 668.361 346.421L693.169 633.921C649.267 642.014 529.45 671.325 432.979 759.717 432.899 759.789 432.833 759.762 432.833 759.654ZM432.833 786.589 432.833 784.131C549.128 668.586 712.183 648.769 712.183 648.769L691.28 406.528C698.42 405.917 704.63 405.587 709.642 405.452L734.914 675.418C682.041 677.008 548.599 691.19 432.977 786.651 432.899 786.717 432.833 786.687 432.833 786.584ZM760.1 712.102C694.645 712.102 567.821 722.702 453.836 793.734 452.736 794.491 451.517 795.059 450.23 795.412 450.035 795.118 452.184 793.831 453.16 793.069 573.314 699.136 711.655 692.915 746.181 692.916 751.45 692.916 754.308 693.061 754.308 693.061L730.667 440.504C738.917 440.07 745.86 439.886 751.184 439.838L776.422 712.332C771.693 712.192 766.223 712.097 760.1 712.097Z" fill="#000000" fill-rule="nonzero" fill-opacity="1" transform="matrix(1.00118 0 0 1 2158 302)"/><path d="M652.903 124.986C659.522 101.705 675.832 82.3935 697.677 71.9713 675.839 61.5544 659.531 42.2556 652.903 18.9864 646.295 42.2663 629.981 61.5723 608.129 71.9713 629.988 82.3756 646.304 101.695 652.903 124.986ZM652.914 57.6154C656.763 62.8056 661.101 67.6139 665.87 71.974 661.101 76.3344 656.763 81.1433 652.914 86.3343 649.066 81.1423 644.727 76.3332 639.956 71.974 644.726 67.6149 649.066 62.8065 652.914 57.6154Z" fill="#000000" fill-rule="nonzero" fill-opacity="1" transform="matrix(1.00118 0 0 1 2158 302)"/><path d="M87.7265 319.32C94.3453 296.038 110.654 276.726 132.5 266.305 110.662 255.888 94.3541 236.589 87.7265 213.32 81.1175 236.6 64.8028 255.906 42.9512 266.305 64.8105 276.708 81.1267 296.028 87.7265 319.32ZM87.7371 251.95C91.5857 257.14 95.9247 261.948 100.693 266.307 95.9238 270.667 91.5849 275.476 87.7371 280.668 83.8896 275.475 79.5503 270.667 74.7794 266.307 79.5489 261.948 83.8881 257.14 87.7371 251.95Z" fill="#000000" fill-rule="nonzero" fill-opacity="1" transform="matrix(1.00118 0 0 1 2158 302)"/><path d="M174.688 124.986C180.204 105.586 193.795 89.4931 212 80.8091 193.802 72.127 180.212 56.0442 174.688 36.653 169.18 56.0529 155.585 72.1415 137.376 80.8091 155.592 89.479 169.188 105.577 174.688 124.986ZM174.697 73.6408C176.734 76.1498 178.909 78.543 181.214 80.8091 178.909 83.0765 176.734 85.4711 174.697 87.9817 172.66 85.471 170.484 83.0764 168.18 80.8091 170.484 78.543 172.66 76.1498 174.697 73.6408Z" fill="#000000" fill-rule="nonzero" fill-opacity="1" transform="matrix(1.00118 0 0 1 2158 302)"/><path d="M757.688 266.32C763.204 246.919 776.795 230.826 795 222.142 776.802 213.46 763.212 197.377 757.688 177.986 752.18 197.386 738.585 213.475 720.376 222.142 738.592 230.812 752.188 246.91 757.688 266.32ZM757.697 214.974C759.734 217.483 761.909 219.877 764.214 222.142 761.909 224.41 759.734 226.805 757.697 229.315 755.66 226.805 753.484 224.41 751.179 222.142 753.484 219.877 755.66 217.483 757.697 214.974Z" fill="#000000" fill-rule="nonzero" fill-opacity="1" transform="matrix(1.00118 0 0 1 2158 302)"/><path d="M424 80.8197C428.878 80.8197 432.833 76.8648 432.833 71.9863L432.833 36.653C432.833 31.7745 428.878 27.8197 424 27.8197 419.121 27.8197 415.167 31.7745 415.167 36.653L415.167 71.9863C415.167 76.8648 419.121 80.8197 424 80.8197Z" fill="#000000" fill-rule="nonzero" fill-opacity="1" transform="matrix(1.00118 0 0 1 2158 302)"/><path d="M424 345.82C428.878 345.82 432.833 341.865 432.833 336.986L432.833 248.653C432.833 243.774 428.878 239.82 424 239.82 419.121 239.82 415.167 243.774 415.167 248.653L415.167 336.986C415.167 341.865 419.121 345.82 424 345.82Z" fill="#000000" fill-rule="nonzero" fill-opacity="1" transform="matrix(1.00118 0 0 1 2158 302)"/><path d="M424 204.486C428.878 204.486 432.833 200.532 432.833 195.653L432.833 124.986C432.833 120.108 428.878 116.153 424 116.153 419.121 116.153 415.167 120.108 415.167 124.986L415.167 195.653C415.167 200.532 419.121 204.486 424 204.486Z" fill="#000000" fill-rule="nonzero" fill-opacity="1" transform="matrix(1.00118 0 0 1 2158 302)"/><path d="M545.553 162.94C550.319 163.981 555.026 160.961 556.067 156.195 556.068 156.193 556.068 156.191 556.069 156.188L567.335 104.398C568.372 99.6285 565.347 94.9212 560.578 93.8842 555.809 92.8471 551.102 95.8717 550.065 100.641L538.799 152.431C537.762 157.199 540.785 161.903 545.553 162.94Z" fill="#000000" fill-rule="nonzero" fill-opacity="1" transform="matrix(1.00118 0 0 1 2158 302)"/><path d="M519.295 283.786C524.055 284.825 528.757 281.809 529.797 277.049 529.798 277.042 529.799 277.035 529.801 277.029L544.812 207.975C545.848 203.206 542.821 198.501 538.053 197.464 533.284 196.428 528.578 199.454 527.542 204.223L512.532 273.277C511.496 278.044 514.521 282.749 519.289 283.784 519.29 283.785 519.293 283.785 519.295 283.786Z" fill="#000000" fill-rule="nonzero" fill-opacity="1" transform="matrix(1.00118 0 0 1 2158 302)"/><path d="M609.491 266.32C612.397 266.324 615.12 264.898 616.771 262.507L677.015 175.293C679.787 171.277 678.78 165.773 674.763 163.001 670.747 160.228 665.243 161.236 662.471 165.252L602.227 252.466C599.455 256.48 600.461 261.982 604.475 264.754 605.95 265.773 607.699 266.319 609.49 266.32Z" fill="#000000" fill-rule="nonzero" fill-opacity="1" transform="matrix(1.00118 0 0 1 2158 302)"/><path d="M299.436 190.712 318.199 277.028C319.235 281.797 323.94 284.823 328.709 283.787 333.479 282.75 336.504 278.045 335.468 273.276L316.706 186.959C315.67 182.19 310.963 179.164 306.195 180.2 301.426 181.237 298.4 185.942 299.436 190.712Z" fill="#000000" fill-rule="nonzero" fill-opacity="1" transform="matrix(1.00118 0 0 1 2158 302)"/><path d="M288.179 138.924C289.216 143.694 293.923 146.718 298.692 145.681 303.461 144.644 306.486 139.937 305.449 135.168L297.935 100.641C296.898 95.8717 292.191 92.8471 287.422 93.8842 282.652 94.9212 279.628 99.6285 280.665 104.398Z" fill="#000000" fill-rule="nonzero" fill-opacity="1" transform="matrix(1.00118 0 0 1 2158 302)"/><path d="M173.233 163.005C169.222 165.779 168.214 171.277 170.981 175.293L231.225 262.507C233.998 266.523 239.501 267.531 243.516 264.759 247.533 261.986 248.541 256.482 245.768 252.466L185.525 165.252C182.753 161.237 177.251 160.23 173.237 163.002 173.236 163.003 173.234 163.004 173.233 163.005Z" fill="#000000" fill-rule="nonzero" fill-opacity="1" transform="matrix(1.00118 0 0 1 2158 302)"/></g></g></g><rect x="2200" y="306" width="941" height="277" fill="#FFFFFF" fill-opacity="1"/><text fill="#FFFFFF" fill-opacity="1" font-family="Yu Gothic,Yu Gothic_MSFontService,sans-serif" font-style="normal" font-variant="normal" font-weight="400" font-stretch="normal" font-size="83" text-anchor="start" direction="ltr" writing-mode="lr-tb" unicode-bidi="normal" text-decoration="none" transform="matrix(1 0 0 1 2649.07 471)">c</text><rect x="0" y="0" width="307.42" height="301.174" fill="#FFFFFF" fill-opacity="1" transform="matrix(0.664316 0.747452 0.747452 -0.664316 2368.01 460.027)"/><text fill="#FFFFFF" fill-opacity="1" font-family="Yu Gothic,Yu Gothic_MSFontService,sans-serif" font-style="normal" font-variant="normal" font-weight="400" font-stretch="normal" font-size="83" text-anchor="start" direction="ltr" writing-mode="lr-tb" unicode-bidi="normal" text-decoration="none" transform="matrix(-0.664316 -0.747452 0.747452 -0.664316 2616.56 473)">c</text><rect x="0" y="0" width="307.42" height="301.174" fill="#FFFFFF" fill-opacity="1" transform="matrix(0.664316 0.747452 0.747452 -0.664316 1943.82 484.024)"/><text fill="#FFFFFF" fill-opacity="1" font-family="Yu Gothic,Yu Gothic_MSFontService,sans-serif" font-style="normal" font-variant="normal" font-weight="400" font-stretch="normal" font-size="83" text-anchor="start" direction="ltr" writing-mode="lr-tb" unicode-bidi="normal" text-decoration="none" transform="matrix(-0.664316 -0.747452 0.747452 -0.664316 2192.37 497)">c</text><g clip-path="url(#clip0)"><g clip-path="url(#clip1)"><g clip-path="url(#clip2)"><path d="M327.762 221.203 281.096 174.537C275.217 168.658 266.031 168.658 260.152 174.537L231.491 203.198 218.631 190.337 257.58 151.388C263.459 145.509 263.459 136.323 257.58 130.443 257.58 130.443 257.58 130.443 257.58 130.443L251.333 124.197 266.766 119.053 232.961 84.5127 227.817 99.9454 221.57 93.6988C215.691 87.8197 206.505 87.8197 200.626 93.6988 200.626 93.6988 200.626 93.6988 200.626 93.6988L161.676 133.016 148.816 120.155 177.477 91.4941C183.356 85.615 183.356 76.4288 177.477 70.5497L130.443 23.884C124.564 18.0049 115.378 18.0049 109.499 23.884L44.8285 88.5546C38.9493 94.4337 38.9493 103.62 44.8285 109.499 44.8285 109.499 44.8285 109.499 44.8285 109.499L91.4941 156.165C97.3733 162.044 106.559 162.044 112.439 156.165L143.304 124.932 156.165 137.792 117.583 177.109C111.704 182.988 111.704 192.174 117.583 198.054 117.583 198.054 117.583 198.054 117.583 198.054L127.871 208.342 117.215 218.998C106.927 210.179 94.8012 204.3 81.5731 201.728 68.345 199.523 56.5867 201.728 49.9727 208.342L47.4006 210.914 61.731 225.612 61.731 277.055C61.3635 277.055 60.6286 277.055 60.2612 277.055 52.1774 277.055 45.5633 283.669 45.5633 291.752 45.5633 299.836 52.1774 306.45 60.2612 306.45 68.345 306.45 74.9591 299.836 74.9591 291.752 74.9591 291.385 74.9591 290.65 74.9591 290.283L126.402 290.283 141.099 304.613 143.672 302.041C154.327 291.385 155.43 262.724 133.016 234.798L143.672 224.142 153.96 234.431C159.839 240.31 169.025 240.31 174.904 234.431L213.854 195.481 226.714 208.342 195.481 239.575C189.602 245.454 189.602 254.64 195.481 260.519L242.147 307.185C248.026 313.064 257.212 313.064 263.092 307.185L328.13 242.147C333.641 236.268 333.641 227.082 327.762 221.203ZM235.901 98.1082 253.538 115.746 245.822 118.318 233.328 105.825 235.901 98.1082ZM171.965 85.9824 143.304 114.643 127.871 99.2105 161.676 65.4054 171.965 75.6939C174.904 78.6335 174.904 83.4103 171.965 85.9824 171.965 85.9824 171.965 85.9824 171.965 85.9824ZM106.927 78.2661 140.732 44.461 156.165 59.8938 122.36 93.6988 106.927 78.2661ZM117.583 99.2105 81.2056 135.588 65.7729 120.155 102.15 83.7778 117.583 99.2105ZM115.011 29.0283C117.95 26.0887 122.36 26.0887 125.299 29.0283L135.588 39.3168 101.783 73.1218 86.3499 57.6891 115.011 29.0283ZM47.768 99.2105C47.768 97.3733 48.5029 95.536 49.9727 94.0663L81.2056 62.8333 96.6384 78.2661 60.2612 114.643 49.9727 104.355C48.5029 102.885 47.768 101.048 47.768 99.2105ZM106.927 151.02C103.987 153.96 99.578 153.96 96.6384 151.02L86.3499 140.732 122.727 104.355 138.16 119.788 106.927 151.02ZM91.4941 255.008 69.0799 277.422 69.0799 232.594 91.4941 255.008ZM65.4054 296.529C62.4659 299.469 58.0565 299.469 55.117 296.529 52.1774 293.59 52.1774 289.18 55.117 286.241 58.0565 283.301 62.4659 283.301 65.4054 286.241 68.345 289.18 68.345 293.59 65.4054 296.529 65.4054 296.529 65.4054 296.529 65.4054 296.529ZM74.2242 282.566 96.6384 260.152 119.053 282.566 74.2242 282.566ZM140.365 293.59 58.0565 211.282C65.038 207.975 72.7544 207.24 80.1033 209.077 89.6569 210.914 104.355 216.058 120.155 231.859 145.141 256.478 146.611 282.566 140.365 293.59ZM127.871 229.287C127.136 228.552 126.402 227.449 125.299 226.714 124.197 225.98 123.462 224.877 122.727 224.142L133.016 213.854 138.16 218.998 127.871 229.287ZM169.393 228.919C166.453 231.859 162.044 231.859 159.104 228.919L148.816 218.631 143.304 213.486 138.16 208.342 133.016 203.198 122.727 192.909C119.788 189.97 119.788 185.56 122.727 182.621 122.727 182.621 122.727 182.621 122.727 182.621L205.77 99.2105C208.71 96.271 213.119 96.271 216.058 99.2105 216.058 99.2105 216.058 99.2105 216.058 99.2105L224.877 108.029 243.617 126.769 252.436 135.588C255.375 138.527 255.375 142.937 252.436 145.876 252.436 145.876 252.436 145.876 252.436 145.876L169.393 228.919ZM257.947 228.919 291.752 195.114 307.185 210.547 273.38 244.352 257.947 228.919ZM268.236 249.864 231.859 286.241 216.426 270.808 252.803 234.431 268.236 249.864ZM265.664 179.681C268.603 176.742 273.013 176.742 275.952 179.681 275.952 179.681 275.952 179.681 275.952 179.681L286.241 189.97 252.436 223.775 237.003 208.342 265.664 179.681ZM200.626 244.719 231.859 213.486 247.291 228.919 210.914 265.296 200.626 255.008C197.686 252.068 197.686 247.659 200.626 244.719ZM257.947 301.673C255.008 304.613 250.598 304.613 247.659 301.673L237.37 291.385 273.748 255.008 289.18 270.441 257.947 301.673ZM294.325 265.296 278.524 249.864 312.329 216.058 322.618 226.347C325.557 229.287 325.557 233.696 322.618 236.635L294.325 265.296Z" fill="#000000" fill-rule="nonzero" fill-opacity="1" transform="matrix(0.987151 -0.159792 0.162049 1.0011 2101.14 305.927)"/></g></g></g><g><g><g><path d="M2823.8 461.349 2765.7 474.493C2761.16 475.567 2756.47 473.399 2754.35 469.242 2751.96 465.102 2752.66 459.87 2756.05 456.506L2817.86 394.691C2820.96 391.813 2825.4 390.895 2829.38 392.311L2845.63 398.774C2846.8 396.479 2848.07 394.169 2849.34 391.863L2832.14 385.022C2825.35 382.556 2817.76 384.115 2812.5 389.054L2750.56 450.998C2744.65 456.782 2743.41 465.826 2747.53 472.99 2750.61 478.859 2756.68 482.541 2763.31 482.554 2764.69 482.551 2766.07 482.398 2767.42 482.098L2822.23 469.698C2822.68 467.021 2823.2 464.271 2823.8 461.349Z" fill="#000000" fill-rule="nonzero" fill-opacity="1"/><path d="M2949.35 489.796C2947.04 491.078 2944.74 492.34 2942.43 493.521L2949.96 512.945C2951.56 516.828 2950.65 521.287 2947.67 524.243L2885.73 586.187C2881.66 590.401 2874.95 590.521 2870.74 586.453 2868.08 583.89 2866.95 580.129 2867.75 576.525L2881.12 515.178C2878.3 515.783 2875.52 516.33 2872.79 516.818L2860.14 574.866C2858.24 582.858 2861.98 591.125 2869.25 594.964 2876.46 599.027 2885.51 597.689 2891.24 591.711L2953.18 529.767C2958.37 524.593 2959.95 516.809 2957.18 510.023Z" fill="#000000" fill-rule="nonzero" fill-opacity="1"/><path d="M3063.82 279.971C3058.57 274.723 3038.84 276.02 3005.18 283.827 2996.84 285.775 2988.37 288.179 2979.29 291.202L2968.83 294.708C2940.45 306.71 2914.73 324.21 2893.14 346.2 2845.23 394.095 2831.85 452.396 2828.13 482.889L2827.9 484.775 2854.73 511.613 2856.62 511.383C2894.27 506.79 2948.61 491.853 2993.7 446.767 3015.76 425.318 3033.3 399.657 3045.26 371.304L3049.58 359.227C3051.57 353.688 3053.37 347.929 3054.93 342.14L3057.17 333.869C3065.73 302.372 3069.93 285.662 3063.82 279.971ZM3037.98 368.523C3026.41 395.85 3009.49 420.582 2988.2 441.258 2945.43 484.034 2893.92 498.702 2857.57 503.412L2836.11 481.954C2840.01 451.995 2853.37 396.99 2898.65 351.708 2919.44 330.507 2944.2 313.617 2971.53 302.005L2981.76 298.597C2985.11 297.478 2988.38 296.469 2991.57 295.519 3002.33 301.691 3012.23 309.236 3021.04 317.967 3030.31 327.282 3038.26 337.812 3044.69 349.27 3043.91 351.743 3043.1 354.198 3042.24 356.602ZM3049.67 331.828 3047.72 339.004C3041.61 329.44 3034.52 320.543 3026.56 312.458 3019.03 305.061 3010.79 298.426 3001.95 292.648 3003.63 292.223 3005.3 291.802 3006.96 291.417 3039.93 283.765 3055.99 283.738 3058.36 285.522 3061.21 289.348 3054.53 313.892 3049.65 331.812Z" fill="#000000" fill-rule="nonzero" fill-opacity="1"/><path d="M2838.56 507.974C2837.05 507.177 2835.62 506.214 2834.32 505.103 2833.1 503.765 2832.04 502.289 2831.17 500.705 2829.43 497.822 2827.46 494.553 2823.49 494.082 2819.86 493.661 2816.09 495.718 2810.54 501.266 2802.5 509.307 2774.5 544.486 2784.44 555.083 2786.13 556.694 2788.4 557.54 2790.73 557.42 2795.54 557.42 2802.2 554.892 2810.84 549.812 2820.77 543.941 2829.98 536.937 2838.29 528.942 2843.8 523.269 2845.93 519.284 2845.42 515.614 2844.86 511.593 2841.52 509.673 2838.56 507.974ZM2832.76 523.46C2818.3 537.921 2794.12 551.728 2790.12 549.757 2788.01 545.382 2802.16 520.659 2816.06 506.763 2817.8 504.666 2819.96 502.961 2822.41 501.76 2823.24 502.652 2823.95 503.653 2824.51 504.733 2825.71 506.88 2827.17 508.871 2828.86 510.658L2828.95 510.748C2830.7 512.298 2832.63 513.634 2834.69 514.73 2835.75 515.282 2836.76 515.924 2837.71 516.65 2837.7 516.72 2837.66 518.399 2832.76 523.46Z" fill="#000000" fill-rule="nonzero" fill-opacity="1"/><path d="M2954.24 346.648C2943.6 357.216 2943.55 374.403 2954.12 385.038 2959.31 390.26 2966.39 393.15 2973.75 393.047 2980.93 393.087 2987.83 390.268 2992.92 385.213 3003.57 374.531 3003.54 357.238 2992.86 346.587 2982.18 335.937 2964.89 335.962 2954.24 346.644ZM2987.42 379.704C2979.9 387.428 2967.54 387.592 2959.82 380.07 2952.09 372.548 2951.93 360.189 2959.45 352.465 2959.57 352.341 2959.69 352.218 2959.82 352.098 2963.46 348.489 2968.39 346.481 2973.52 346.515 2984.22 346.352 2993.03 354.899 2993.2 365.604 2993.28 370.895 2991.19 375.989 2987.42 379.704Z" fill="#000000" fill-rule="nonzero" fill-opacity="1"/></g></g></g><g clip-path="url(#clip3)"><g clip-path="url(#clip4)"><g clip-path="url(#clip5)"><path d="M2567.51 227.663C2570.4 234.67 2577.54 238.954 2585.08 238.199L2609.79 318.295C2601.51 322.713 2598.38 333.004 2602.8 341.28 2603.75 343.048 2604.99 344.636 2606.49 345.969L2584.82 382.508C2576.28 378.454 2566.07 382.09 2562.02 390.631 2558.48 398.078 2560.76 406.988 2567.43 411.828L2552.15 437.595C2542.89 435.6 2533.77 441.489 2531.78 450.749 2529.78 460.008 2535.67 469.131 2544.93 471.126 2545.71 471.294 2546.5 471.407 2547.3 471.465L2562.83 515.758C2554.84 520.877 2552.51 531.502 2557.63 539.491 2562.75 547.48 2573.38 549.806 2581.36 544.687 2589.35 539.568 2591.68 528.943 2586.56 520.954 2582.85 515.158 2576.03 512.139 2569.24 513.282L2554.26 470.557C2554.54 470.462 2554.82 470.426 2555.08 470.316 2563.86 466.773 2568.1 456.789 2564.55 448.017 2563.31 444.942 2561.2 442.293 2558.49 440.393L2573.7 414.737C2582.86 416.981 2592.1 411.378 2594.34 402.222 2595.7 396.69 2594.21 390.846 2590.36 386.642L2612.41 349.46C2621.3 352.611 2631.06 347.962 2634.21 339.076 2635.25 336.135 2635.47 332.965 2634.84 329.909L2660.49 317.248C2666.29 324.738 2677.06 326.112 2684.55 320.318 2692.03 314.524 2693.41 303.756 2687.62 296.266 2684.54 292.286 2679.86 289.859 2674.84 289.63L2667.44 241.81C2674.92 236.003 2676.27 225.236 2670.46 217.76 2664.66 210.284 2653.89 208.932 2646.42 214.738 2642.75 217.586 2640.39 221.8 2639.89 226.416L2600.53 220.335C2600.46 218.397 2600.06 216.486 2599.34 214.683 2595.76 205.894 2585.73 201.673 2576.94 205.257 2568.15 208.841 2563.93 218.872 2567.51 227.662ZM2581.63 526.313C2583.78 531.587 2581.25 537.605 2575.97 539.756 2570.7 541.906 2564.68 539.374 2562.53 534.1 2560.38 528.826 2562.91 522.808 2568.19 520.657 2573.46 518.513 2579.48 521.044 2581.63 526.313ZM2552.49 463.949C2547.22 466.1 2541.2 463.568 2539.05 458.294 2536.9 453.02 2539.43 447.001 2544.7 444.851 2549.98 442.7 2555.99 445.232 2558.15 450.506 2560.29 455.78 2557.76 461.794 2552.49 463.949ZM2581.48 407.582C2576.2 409.733 2570.19 407.201 2568.04 401.927 2565.89 396.653 2568.42 390.634 2573.69 388.484 2578.97 386.333 2584.98 388.865 2587.13 394.139 2589.28 399.413 2586.75 405.427 2581.48 407.582ZM2621.9 342.841C2616.63 344.991 2610.61 342.459 2608.46 337.185 2606.31 331.911 2608.84 325.893 2614.11 323.742 2619.39 321.592 2625.41 324.124 2627.56 329.398 2629.7 334.672 2627.17 340.685 2621.9 342.841ZM2683.55 302.853C2685.7 308.127 2683.17 314.145 2677.9 316.296 2672.62 318.446 2666.61 315.914 2664.46 310.64 2662.31 305.366 2664.84 299.348 2670.11 297.197 2675.39 295.054 2681.4 297.584 2683.55 302.853ZM2666.44 224.451C2668.59 229.725 2666.05 235.743 2660.78 237.894 2655.51 240.044 2649.49 237.512 2647.34 232.238 2645.19 226.964 2647.72 220.946 2652.99 218.795 2658.27 216.652 2664.28 219.182 2666.44 224.451ZM2640.57 233.478C2640.71 233.93 2640.79 234.388 2640.97 234.834 2644.21 242.702 2652.72 247.013 2660.97 244.967L2668.04 290.677C2667.87 290.741 2667.69 290.761 2667.52 290.831 2659.56 294.104 2655.26 302.764 2657.46 311.082L2632.16 323.568C2628.61 318.446 2622.56 315.651 2616.35 316.265L2591.65 236.17C2595.27 234.201 2598.05 230.991 2599.49 227.132ZM2592.98 217.28C2595.13 222.553 2592.6 228.572 2587.32 230.723 2582.05 232.873 2576.03 230.341 2573.88 225.067 2571.73 219.793 2574.26 213.775 2579.54 211.624 2584.81 209.48 2590.82 212.011 2592.98 217.28Z" fill="#000000" fill-rule="nonzero" fill-opacity="1"/><path d="M2519.11 269.671C2503.32 271.486 2487.52 266.442 2475.7 255.82 2474.7 271.687 2466.92 286.358 2454.35 296.08 2470.13 294.266 2485.94 299.31 2497.76 309.932 2498.78 294.073 2506.56 279.414 2519.11 269.671ZM2470.07 289.677C2475.01 283.3 2478.64 276.013 2480.77 268.232 2487.73 272.299 2495.42 274.964 2503.4 276.076 2498.47 282.459 2494.83 289.748 2492.7 297.53 2485.74 293.459 2478.05 290.791 2470.07 289.677Z" fill="#000000" fill-rule="nonzero" fill-opacity="1"/><path d="M2675.78 447.654C2686.64 446.406 2697.51 449.876 2705.65 457.184 2706.35 446.273 2711.7 436.187 2720.34 429.484 2709.48 430.732 2698.6 427.262 2690.47 419.953 2689.78 430.87 2684.43 440.964 2675.78 447.654ZM2705.84 435.396C2703.76 438.541 2702.1 441.936 2700.88 445.5 2697.52 443.805 2693.96 442.543 2690.29 441.744 2692.36 438.601 2694.03 435.207 2695.24 431.644 2698.6 433.338 2702.16 434.599 2705.84 435.396Z" fill="#000000" fill-rule="nonzero" fill-opacity="1"/><path d="M2471.52 352.187C2464.85 352.953 2458.17 350.823 2453.18 346.337 2452.76 353.038 2449.47 359.235 2444.16 363.341 2450.83 362.575 2457.51 364.705 2462.5 369.191 2462.93 362.493 2466.21 356.301 2471.52 352.187Z" fill="#000000" fill-rule="nonzero" fill-opacity="1"/></g></g></g></g></g></svg>